<svg width="40" height="40" viewBox="0 0 40 40" fill="none" xmlns="http://www.w3.org/2000/svg">
  <circle cx="20" cy="20" r="20" fill="#EE1D52"/>
  <path d="M28.8401 13.61C28.3294 13.099 27.7229 12.6936 27.0555 12.4171C26.388 12.1405 25.6726 11.9982 24.9501 11.9982C24.2276 11.9982 23.5122 12.1405 22.8448 12.4171C22.1773 12.6936 21.5709 13.099 21.0601 13.61L20.0001 14.67L18.9401 13.61C17.9084 12.5783 16.5092 11.9987 15.0501 11.9987C13.5911 11.9987 12.1918 12.5783 11.1601 13.61C10.1284 14.6417 9.54883 16.041 9.54883 17.5C9.54883 18.959 10.1284 20.3583 11.1601 21.39L12.2201 22.45L20.0001 30.23L27.7801 22.45L28.8401 21.39C29.3511 20.8792 29.7565 20.2728 30.033 19.6053C30.3096 18.9379 30.4519 18.2225 30.4519 17.5C30.4519 16.7775 30.3096 16.0621 30.033 15.3946C29.7565 14.7272 29.3511 14.1208 28.8401 13.61V13.61Z" stroke="white" stroke-width="2" stroke-linecap="round" stroke-linejoin="round"/>
</svg>
